<svg>
  <defs id="SvgjsDefs1209"></defs>
  <g id="SvgjsG1210" featurekey="1p4tPl-0" transform="matrix(0.6628695435407643,0,0,0.6628695435407643,103.31843968928419,-17.010557396946997)" fill="blue">
    <g xmlns="http://www.w3.org/2000/svg">
      <path d="M210.299,26.539c-0.485-0.583-1.238-0.877-2.239-0.877c-9.533,0-48.115,28.483-60.796,38.046   c-11.675-11.082-27.138-17.337-43.468-17.337c-14.703,0-29.036,5.187-40.36,14.604c-24.888,20.699-29.795,56.62-12.492,83.089   c-14.605,13.486-26.493,25.28-34.396,34.188C4.89,191.389,4.835,194.741,6.088,196.249C6.573,196.831,7.326,197,8.327,197   c0,0,0,0,0.001,0c6.467,0,28.999-14.181,58.523-36.264c10.657,7.709,23.536,11.979,37.011,11.979   c14.703,0,29.037-5.187,40.36-14.604c22.52-18.729,28.67-49.919,16.822-75.297c9.28-8.441,17.718-16.427,24.972-23.677   C214.082,31.087,211.333,27.783,210.299,26.539z M64.715,62.511C75.68,53.392,89.559,48.37,103.795,48.37   c15.966,0,31.093,6.153,42.436,17.078l0.021,0.021c0.594,0.573,1.167,1.172,1.74,1.771l0.566,0.591l0.009-0.006   c0.786,0.844,1.551,1.71,2.293,2.603c1.681,2.021,3.192,4.126,4.567,6.288c-10.808,10.458-25.458,23.653-43.782,38.892   c-19.582,16.286-36.696,29.35-49.734,38.449c-1.797-1.689-3.515-3.478-5.113-5.4c-0.688-0.827-1.348-1.667-1.985-2.519l0.006-0.008   l-0.505-0.696c-0.421-0.579-0.842-1.161-1.24-1.75l-0.128-0.192C35.784,117.814,40.452,82.69,64.715,62.511z M150.199,66.673   c13.987-9.862,24.111-15.737,27.157-15.737c0.129,0,0.211,0.013,0.257,0.024c0.385,1.944-6.685,10.635-20.725,24.339   c-1.36-2.112-2.845-4.171-4.491-6.151C151.689,68.296,150.95,67.479,150.199,66.673z M60.231,155.223   c-12.642,8.726-21.163,13.478-23.926,13.479c-0.124,0-0.204-0.012-0.251-0.023c-0.034-0.512,0.505-4.239,17.386-21.064   c0.587,0.784,1.187,1.562,1.82,2.323C56.819,151.811,58.489,153.563,60.231,155.223z M142.944,156.574   c-10.965,9.12-24.844,14.142-39.081,14.142c-12.836,0-25.111-4.003-35.332-11.24c14.71-11.052,31.075-23.991,48.025-38.089   c15.374-12.786,29.963-25.406,42.946-37.167C170.625,108.69,164.585,138.576,142.944,156.574z M184.604,57.723   c-17.661,17.652-42.281,39.76-69.326,62.252C64.52,162.19,17.542,195.256,8.328,195.254c-0.421,0-0.641-0.084-0.701-0.157   c-1.087-1.306,4.829-12.724,44.455-49.333c0.052,0.073,0.105,0.147,0.159,0.221c-20.626,20.52-18.608,22.948-17.742,23.99   c0.401,0.481,1.009,0.726,1.808,0.726c7.085-0.001,39.308-22.524,76.619-53.555c19.138-15.916,36.565-31.566,49.073-44.067   c20.008-19.999,18.016-22.394,17.166-23.417c-0.401-0.482-1.008-0.726-1.807-0.726c-4.537,0-17.873,8.727-28.547,16.266   c-0.029-0.03-0.059-0.061-0.087-0.091c30.667-23.12,53.363-37.45,59.338-37.45c0.421,0,0.641,0.084,0.701,0.156   C208.868,27.946,211.072,31.267,184.604,57.723z"></path>
      <path d="M33.5,155c1.746,0,3.167-1.42,3.167-3.167s-1.42-3.167-3.167-3.167s-3.167,1.421-3.167,3.167S31.754,155,33.5,155z    M33.5,150.667c0.643,0,1.167,0.523,1.167,1.167c0,0.643-0.523,1.167-1.167,1.167c-0.644,0-1.167-0.523-1.167-1.167   C32.333,151.19,32.856,150.667,33.5,150.667z"></path>
      <path d="M173.667,81c-2.573,0-4.667,2.093-4.667,4.667s2.093,4.667,4.667,4.667s4.667-2.093,4.667-4.667S176.24,81,173.667,81z    M173.667,88.333c-1.47,0-2.667-1.196-2.667-2.667S172.196,83,173.667,83s2.667,1.196,2.667,2.667S175.137,88.333,173.667,88.333z"></path>
      <path d="M127,44.667c2.021,0,3.667-1.645,3.667-3.667c0-2.021-1.645-3.667-3.667-3.667c-2.022,0-3.667,1.645-3.667,3.667   C123.333,43.022,124.978,44.667,127,44.667z M127,39.333c0.919,0,1.667,0.748,1.667,1.667s-0.748,1.667-1.667,1.667   s-1.667-0.748-1.667-1.667S126.081,39.333,127,39.333z"></path>
    </g>
  </g>
  <g id="SvgjsG1211" featurekey="dYASrj-0" transform="matrix(1.8436578526742347,0,0,1.8436578526742347,-0.3687320980095896,123.45427659039362)" fill="blue">
    <path d="M9.3 6 c0.32 0 0.5 0.18 0.5 0.5 l0 2.08 c0 0.32 -0.18 0.5 -0.5 0.5 l-2.7 0 l0 10.42 c0 0.32 -0.18 0.5 -0.5 0.5 l-2.2 0 c-0.32 0 -0.5 -0.18 -0.5 -0.5 l0 -10.42 l-2.7 0 c-0.32 0 -0.5 -0.18 -0.5 -0.5 l0 -2.08 c0 -0.32 0.18 -0.5 0.5 -0.5 l5.9 0 l2.7 0 z M16.7 9.72 c1.86 0 3.2 1.44 3.2 3.94 l0 5.84 c0 0.32 -0.18 0.5 -0.5 0.5 l-2 0 c-0.32 0 -0.5 -0.18 -0.5 -0.5 l0 -5.58 c0 -1 -0.58 -1.44 -1.34 -1.44 c-0.9 0 -1.46 0.5 -1.46 1.68 l0 5.34 c0 0.32 -0.18 0.5 -0.5 0.5 l-2 0 c-0.32 0 -0.5 -0.18 -0.5 -0.5 l0 -13 c0 -0.32 0.18 -0.5 0.5 -0.5 l2 0 c0.32 0 0.5 0.18 0.5 0.5 l0 4.4134 c0.47 -0.695 1.3214 -1.1934 2.6 -1.1934 z M26.700000000000003 9.72 c2.92 0 5.04 2.26 5.04 5.28 c0 0.26 -0.02 0.5 -0.04 0.74 c-0.04 0.32 -0.24 0.46 -0.54 0.46 l-2.44 0 l-4.2388 0 c0.3634 1.1882 1.2966 1.66 2.3388 1.66 c0.56 0 1.12 -0.2 1.48 -0.5 c0.2 -0.16 0.36 -0.26 0.62 -0.26 l1.92 -0.02 c0.36 0 0.56 0.24 0.4 0.56 c-0.78 1.74 -2.42 2.64 -4.46 2.64 c-3.32 0 -5.44 -2.3 -5.44 -5.28 s2.2 -5.28 5.36 -5.28 z M24.468600000000002 13.92 l4.285 0 c-0.3092 -1.138 -1.1914 -1.54 -2.0736 -1.54 c-1.1244 0 -1.9024 0.5426 -2.2114 1.54 z M42.88 20.28 c-2.62 0 -4.92 -1.26 -5.16 -4.16 c-0.02 -0.34 0.18 -0.52 0.5 -0.52 l2.2 0 c0.3 0 0.46 0.16 0.52 0.48 c0.16 0.72 0.76 1.08 1.94 1.08 c1.3 0 1.72 -0.5 1.72 -1.08 c0 -0.82 -1 -1.18 -2.22 -1.6 c-1.98 -0.68 -4.48 -1.5 -4.48 -4.56 c0 -2.8 2.28 -4.2 4.66 -4.2 c2.34 0 4.58 1.26 4.82 4.16 c0.02 0.34 -0.18 0.52 -0.5 0.52 l-2.2 0 c-0.3 0 -0.46 -0.16 -0.52 -0.48 c-0.16 -0.74 -0.68 -1.08 -1.6 -1.08 c-1 0 -1.46 0.5 -1.46 1.08 c0 0.84 0.82 1.24 1.98 1.66 c2 0.7 4.72 1.42 4.72 4.5 c0 2.8 -2.24 4.2 -4.92 4.2 z M55.28 9.72 c2.62 0 4.78 2.3 4.78 5.28 s-2.16 5.28 -4.78 5.28 c-1.3382 0 -2.3112 -0.4516 -2.9798 -1.214 l0 4.434 c0 0.32 -0.18 0.5 -0.5 0.5 l-2 0 c-0.32 0 -0.5 -0.18 -0.5 -0.5 l0 -13 c0 -0.32 0.18 -0.5 0.5 -0.5 l2 0 c0.32 0 0.5 0.18 0.5 0.5 l0 0.434 c0.6686 -0.7624 1.6416 -1.214 2.9798 -1.214 z M54.68000000000001 17.44 c1.38 0 2.38 -0.94 2.38 -2.44 s-1 -2.44 -2.38 -2.44 s-2.38 0.94 -2.38 2.44 s1 2.44 2.38 2.44 z M65.9 9.72 c2.2 0 4.16 1.28 4.16 3.98 l0 5.8 c0 0.32 -0.18 0.5 -0.5 0.5 l-1.92 0 c-0.32 0 -0.5 -0.18 -0.5 -0.5 l0 -0.28561 c-0.5362 0.6276 -1.3234 1.0656 -2.58 1.0656 c-1.76 0 -3.3 -1.04 -3.3 -3.12 s1.54 -3.12 3.3 -3.12 c1.2566 0 2.0438 0.3546 2.58 0.76262 l0 -0.9026 c0 -0.98 -0.4 -1.42 -1.24 -1.42 c-0.62 0 -1 0.24 -1.16 0.58 c-0.12 0.28 -0.22 0.44 -0.52 0.44 l-1.96 0 c-0.32 0 -0.52 -0.18 -0.5 -0.52 c0.26 -2.16 2.1 -3.26 4.14 -3.26 z M65.62 18.16 c0.98 0 1.52 -0.42 1.52 -1 c0 -0.62 -0.54 -1 -1.52 -1 c-0.92 0 -1.36 0.42 -1.36 1 s0.44 1 1.36 1 z M81.30000000000001 16.2 c0.34 0 0.54 0.22 0.42 0.56 c-0.62 2.08 -2.58 3.52 -4.92 3.52 c-3.04 0 -5.3 -2.3 -5.3 -5.28 s2.26 -5.28 5.3 -5.28 c2.34 0 4.3 1.44 4.92 3.52 c0.12 0.34 -0.08 0.56 -0.42 0.56 l-2.2 0 c-0.26 0 -0.44 -0.12 -0.6 -0.34 c-0.36 -0.5 -0.98 -0.78 -1.7 -0.78 c-1.3 0 -2.3 0.94 -2.3 2.32 s1 2.32 2.3 2.32 c0.72 0 1.34 -0.28 1.7 -0.76 c0.16 -0.24 0.32 -0.36 0.6 -0.36 l2.2 0 z M88.12 9.72 c2.92 0 5.04 2.26 5.04 5.28 c0 0.26 -0.02 0.5 -0.04 0.74 c-0.04 0.32 -0.24 0.46 -0.54 0.46 l-2.44 0 l-4.2388 0 c0.3634 1.1882 1.2966 1.66 2.3388 1.66 c0.56 0 1.12 -0.2 1.48 -0.5 c0.2 -0.16 0.36 -0.26 0.62 -0.26 l1.92 -0.02 c0.36 0 0.56 0.24 0.4 0.56 c-0.78 1.74 -2.42 2.64 -4.46 2.64 c-3.32 0 -5.44 -2.3 -5.44 -5.28 s2.2 -5.28 5.36 -5.28 z M85.88860000000001 13.92 l4.285 0 c-0.3092 -1.138 -1.1914 -1.54 -2.0736 -1.54 c-1.1244 0 -1.9024 0.5426 -2.2114 1.54 z M116.14000000000001 6 c0.36 0 0.52 0.2 0.42 0.56 l-3.58 13.02 c-0.08 0.3 -0.28 0.42 -0.56 0.42 l-2.56 0 c-0.28 0 -0.48 -0.12 -0.56 -0.42 l-1.5786 -5.7412 l-1.5814 5.7412 c-0.08 0.3 -0.28 0.42 -0.56 0.42 l-2.56 0 c-0.28 0 -0.48 -0.12 -0.56 -0.42 l-3.58 -13.02 c-0.1 -0.36 0.06 -0.56 0.42 -0.56 l2.34 0 c0.3 0 0.48 0.16 0.54 0.44 l2.32 9.36 l1.8534 -6.9364 l-0.6334 -2.3036 c-0.1 -0.36 0.06 -0.56 0.42 -0.56 l1.94 0 c0.3 0 0.48 0.16 0.54 0.44 l2.32 9.36 l2.32 -9.36 c0.06 -0.28 0.24 -0.44 0.54 -0.44 l2.34 0 z M122.62000000000002 20.28 c-2.94 0 -5.3 -2.3 -5.3 -5.28 s2.36 -5.28 5.3 -5.28 s5.3 2.3 5.3 5.28 s-2.36 5.28 -5.3 5.28 z M122.62000000000002 17.36 c1.3 0 2.3 -0.94 2.3 -2.36 s-1 -2.36 -2.3 -2.36 s-2.3 0.94 -2.3 2.36 s1 2.36 2.3 2.36 z M134.70000000000002 9.84 c0.34 -0.06 0.52 0.1598 0.52 0.4798 l0 2.36 c0 0.32 -0.14 0.48 -0.4 0.48 c-1.12 -0.04 -2.2 0.52 -2.2 2.12 l0 4.22 c0 0.32 -0.18 0.5 -0.5 0.5 l-2 0 c-0.32 0 -0.5 -0.18 -0.5 -0.5 l0 -9 c0 -0.32 0.18 -0.5 0.5 -0.5 l2 0 c0.32 0 0.5 0.18 0.5 0.5 l0 1.081 c0.2984 -1.004 1.0864 -1.5918 2.08 -1.7408 z M145.48000000000002 19.4 c0.24 0.34 0.1 0.6 -0.3 0.6 l-2.28 0 c-0.26 0 -0.46 -0.1 -0.6 -0.32 l-2.78 -4.0658 l0 3.8858 c0 0.32 -0.18 0.5 -0.5 0.5 l-2 0 c-0.32 0 -0.5 -0.18 -0.5 -0.5 l0 -13 c0 -0.32 0.18 -0.5 0.5 -0.5 l2 0 c0.32 0 0.5 0.18 0.5 0.5 l0 7.8448 l2.58 -4.0248 c0.14 -0.22 0.34 -0.32 0.6 -0.32 l2.3 0 c0.4 0 0.54 0.26 0.32 0.6 l-2.94 4.4 z M149.72000000000003 13 c0 1.48 5.22 0.1 5.22 4 c0 2.3 -1.96 3.28 -4.16 3.28 c-2.04 0 -3.88 -0.92 -4.12 -3.04 c-0.04 -0.34 0.16 -0.52 0.48 -0.52 l1.96 0 c0.3 0 0.4 0.16 0.54 0.42 c0.16 0.34 0.54 0.54 1.14 0.54 c0.84 0 1.16 -0.28 1.16 -0.68 c0 -1.44 -5.22 -0.12 -5.22 -4 c0 -2.26 1.96 -3.28 4.06 -3.28 c1.86 0 3.68 0.92 3.92 3.04 c0.04 0.34 -0.16 0.52 -0.48 0.52 l-1.96 0 c-0.3 0 -0.4 -0.16 -0.54 -0.44 c-0.14 -0.32 -0.48 -0.52 -0.94 -0.52 c-0.74 0 -1.06 0.28 -1.06 0.68 z M162.34 9.72 c1.86 0 3.2 1.44 3.2 3.94 l0 5.84 c0 0.32 -0.18 0.5 -0.5 0.5 l-2 0 c-0.32 0 -0.5 -0.18 -0.5 -0.5 l0 -5.58 c0 -1 -0.58 -1.44 -1.34 -1.44 c-0.9 0 -1.46 0.5 -1.46 1.68 l0 5.34 c0 0.32 -0.18 0.5 -0.5 0.5 l-2 0 c-0.32 0 -0.5 -0.18 -0.5 -0.5 l0 -13 c0 -0.32 0.18 -0.5 0.5 -0.5 l2 0 c0.32 0 0.5 0.18 0.5 0.5 l0 4.4134 c0.47 -0.695 1.3214 -1.1934 2.6 -1.1934 z M172.28000000000003 20.28 c-2.94 0 -5.3 -2.3 -5.3 -5.28 s2.36 -5.28 5.3 -5.28 s5.3 2.3 5.3 5.28 s-2.36 5.28 -5.3 5.28 z M172.28000000000003 17.36 c1.3 0 2.3 -0.94 2.3 -2.36 s-1 -2.36 -2.3 -2.36 s-2.3 0.94 -2.3 2.36 s1 2.36 2.3 2.36 z M185.26000000000005 9.72 c2.62 0 4.78 2.3 4.78 5.28 s-2.16 5.28 -4.78 5.28 c-1.3382 0 -2.3112 -0.4516 -2.9798 -1.214 l0 4.434 c0 0.32 -0.18 0.5 -0.5 0.5 l-2 0 c-0.32 0 -0.5 -0.18 -0.5 -0.5 l0 -13 c0 -0.32 0.18 -0.5 0.5 -0.5 l2 0 c0.32 0 0.5 0.18 0.5 0.5 l0 0.434 c0.6686 -0.7624 1.6416 -1.214 2.9798 -1.214 z M184.66000000000003 17.44 c1.38 0 2.38 -0.94 2.38 -2.44 s-1 -2.44 -2.38 -2.44 s-2.38 0.94 -2.38 2.44 s1 2.44 2.38 2.44 z"></path>
  </g>
</svg>